<mxfile host="app.diagrams.net" modified="2024-04-29T13:09:58.633Z" agent="Mozilla/5.0 (Windows NT 10.0; Win64; x64) AppleWebKit/537.36 (KHTML, like Gecko) Chrome/124.0.0.0 Safari/537.36" version="24.3.0" etag="Kjy9scukUXSzo3Dur5fS" type="github">
  <diagram name="Page-1" id="H-TFuyuddetBLjpvNvzC">
    <mxGraphModel>
      <root>
        <mxCell id="0" />
        <mxCell id="1" parent="0" />
      </root>
    </mxGraphModel>
  </diagram>
</mxfile>
